<svg width="10" height="11" viewBox="0 0 10 11" fill="none" xmlns="http://www.w3.org/2000/svg">
<path d="M6.00385 8.80398L6.00385 9.92539L4.98563 10.5L3.99637 9.92539L3.99637 8.80398L4.98563 9.37859L6.00385 8.80398ZM0.555664 4.92539L1.54493 5.5L1.54493 7.42308L3.24839 8.40083L3.24839 9.52224L0.555664 7.99768L0.555664 4.92539ZM9.4156 4.92539L9.4156 8.00232L6.69392 9.52688L6.69392 8.40547L8.39738 7.42771L8.39738 5.50463L9.4156 4.92539ZM6.68909 3.40083L7.70731 3.97544L7.70731 5.09685L6.00385 6.07461L6.00385 8.02549L5.01459 8.60009L4.03015 8.02549L4.03015 6.06997L2.26395 5.09222L2.26395 3.97081L3.28217 3.3962L4.98563 4.37396L6.68909 3.40083ZM2.26395 5.89852L3.25322 6.47312L3.25322 7.59453L2.26395 7.01992L2.26395 5.89852ZM7.70731 5.89852L7.70731 7.01992L6.71805 7.59453L6.71805 6.47312L7.70731 5.89852ZM1.54493 2.42308L2.56314 2.99768L1.54493 3.57229L1.54493 4.6937L0.555664 4.11909L0.555664 2.99768L1.54493 2.42308ZM8.42634 2.42308L9.44455 2.99768L9.44455 4.11909L8.42634 4.6937L8.42634 3.57229L7.43707 2.99768L8.42634 2.42308ZM4.98563 2.42308L6.00385 2.99768L4.98563 3.57229L3.99637 2.99768L4.98563 2.42308ZM4.98563 0.5L7.70731 2.02456L6.71805 2.59917L5.01459 1.62141L3.27734 2.59917L2.28808 2.02456L4.98563 0.5Z" fill="#B8B8BF"/>
</svg>
