<svg width="10" height="11" viewBox="0 0 10 11" fill="none" xmlns="http://www.w3.org/2000/svg">
<path fill-rule="evenodd" clip-rule="evenodd" d="M9.14053 4.56654C8.91712 5.4062 8.2843 5.8328 7.24389 5.84427C8.36615 6.36304 8.78814 7.1454 8.50833 8.19223C8.3167 8.91244 7.92475 9.35879 7.33368 9.5316C6.9007 9.65267 6.3039 9.63386 5.55076 9.48106L5.21822 10.7309L4.26599 10.4739L4.59307 9.24461L3.64083 8.98765L3.31375 10.217L2.36152 9.96001L2.6886 8.7307L0.780518 8.21581L1.01612 7.33032L1.42491 7.44063C1.7339 7.52401 1.93502 7.5382 2.03099 7.48263C2.12696 7.42707 2.21334 7.25255 2.29198 6.95698L3.39166 2.82387C3.4703 2.52831 3.48214 2.33367 3.42661 2.23723C3.37109 2.14078 3.18867 2.05148 2.88088 1.96842L2.47209 1.85811L2.70769 0.972616L4.61577 1.4875L4.93996 0.269043L5.89339 0.526324L5.5692 1.74478L6.52144 2.00174L6.84563 0.78328L7.79786 1.04024L7.46918 2.27559C8.10087 2.49259 8.56404 2.75205 8.85021 3.05684C9.21002 3.4384 9.30679 3.94163 9.14053 4.56654ZM5.97343 8.41072C5.66374 8.50429 5.19072 8.46587 4.55229 8.29359L3.87419 8.1106L4.52321 5.67127L5.17967 5.84842C5.82532 6.02264 6.26222 6.22588 6.49309 6.45756C6.74585 6.71842 6.81324 7.07538 6.69255 7.52898C6.56416 8.01154 6.32496 8.30516 5.97343 8.41072ZM5.95793 2.79745L5.33393 2.62907L4.76001 4.7861L5.32991 4.93989C5.90341 5.09465 6.33371 5.12413 6.62047 5.02954C6.90723 4.93495 7.10538 4.67939 7.2158 4.26439C7.32236 3.86387 7.27531 3.55636 7.07497 3.34068C6.87583 3.12531 6.50258 2.94443 5.95793 2.79745Z" fill="#B8B8BF"/>
</svg>
