<svg width="1288" height="220" viewBox="0 0 1288 220" fill="none" xmlns="http://www.w3.org/2000/svg">
<path d="M187.34 87.142H137.624C136.961 82.0379 135.602 77.4309 133.547 73.321C131.492 69.2112 128.775 65.6979 125.394 62.7812C122.013 59.8646 118.003 57.6439 113.363 56.1193C108.789 54.5284 103.718 53.7329 98.1497 53.7329C88.2728 53.7329 79.7548 56.1525 72.5957 60.9915C65.5029 65.8305 60.0342 72.8239 56.1895 81.9716C52.4111 91.1193 50.5219 102.189 50.5219 115.182C50.5219 128.705 52.4442 140.04 56.2889 149.188C60.1999 158.269 65.6686 165.13 72.6951 169.77C79.7879 174.344 88.1734 176.631 97.8514 176.631C103.287 176.631 108.225 175.935 112.667 174.543C117.174 173.151 121.118 171.129 124.499 168.477C127.946 165.759 130.763 162.478 132.951 158.634C135.205 154.723 136.762 150.314 137.624 145.409L187.34 145.707C186.478 154.723 183.86 163.605 179.485 172.355C175.176 181.105 169.243 189.093 161.687 196.318C154.13 203.477 144.916 209.178 134.045 213.42C123.24 217.663 110.844 219.784 96.8571 219.784C78.4291 219.784 61.9234 215.741 47.34 207.653C32.823 199.5 21.3552 187.634 12.9366 172.057C4.51806 156.479 0.308782 137.521 0.308782 115.182C0.308782 92.7765 4.58435 73.785 13.1355 58.2074C21.6866 42.6297 33.2539 30.7973 47.8372 22.7102C62.4205 14.6231 78.7605 10.5795 96.8571 10.5795C109.187 10.5795 120.588 12.303 131.062 15.75C141.535 19.1307 150.749 24.1023 158.704 30.6648C166.658 37.161 173.121 45.1487 178.093 54.6278C183.064 64.107 186.147 74.9451 187.34 87.142ZM278.397 219.884C262.355 219.884 248.567 216.602 237.033 210.04C225.565 203.411 216.716 194.197 210.485 182.398C204.32 170.532 201.238 156.777 201.238 141.134C201.238 125.423 204.32 111.669 210.485 99.8693C216.716 88.0038 225.565 78.7898 237.033 72.2273C248.567 65.5985 262.355 62.2841 278.397 62.2841C294.438 62.2841 308.193 65.5985 319.661 72.2273C331.195 78.7898 340.044 88.0038 346.209 99.8693C352.44 111.669 355.556 125.423 355.556 141.134C355.556 156.777 352.44 170.532 346.209 182.398C340.044 194.197 331.195 203.411 319.661 210.04C308.193 216.602 294.438 219.884 278.397 219.884ZM278.695 183.193C284.528 183.193 289.467 181.403 293.51 177.824C297.554 174.244 300.636 169.273 302.758 162.909C304.945 156.545 306.039 149.187 306.039 140.835C306.039 132.35 304.945 124.926 302.758 118.562C300.636 112.199 297.554 107.227 293.51 103.648C289.467 100.068 284.528 98.2784 278.695 98.2784C272.663 98.2784 267.559 100.068 263.383 103.648C259.273 107.227 256.124 112.199 253.936 118.562C251.815 124.926 250.755 132.35 250.755 140.835C250.755 149.187 251.815 156.545 253.936 162.909C256.124 169.273 259.273 174.244 263.383 177.824C267.559 181.403 272.663 183.193 278.695 183.193ZM420.686 129.898V217H372.063V64.2727H418.299V92.3125H419.99C423.37 82.9659 429.137 75.6411 437.291 70.3381C445.444 64.9688 455.155 62.2841 466.424 62.2841C477.163 62.2841 486.476 64.7036 494.365 69.5426C502.319 74.3153 508.484 81.0104 512.859 89.6278C517.3 98.179 519.488 108.188 519.421 119.656V217H470.799V129.202C470.866 120.717 468.711 114.088 464.336 109.315C460.028 104.543 454.028 102.156 446.339 102.156C441.235 102.156 436.727 103.283 432.816 105.537C428.972 107.724 425.989 110.873 423.867 114.983C421.813 119.093 420.752 124.064 420.686 129.898ZM627.332 64.2727V100.068H530.982V64.2727H627.332ZM551.167 27.6818H599.789V168.974C599.789 171.957 600.253 174.377 601.181 176.233C602.176 178.023 603.601 179.315 605.457 180.111C607.313 180.84 609.533 181.205 612.119 181.205C613.975 181.205 615.93 181.039 617.985 180.707C620.106 180.31 621.697 179.978 622.758 179.713L630.116 214.812C627.796 215.475 624.515 216.304 620.272 217.298C616.096 218.293 611.091 218.922 605.258 219.188C593.856 219.718 584.079 218.392 575.926 215.21C567.838 211.962 561.64 206.924 557.332 200.097C553.089 193.269 551.034 184.685 551.167 174.344V27.6818ZM643.74 217V64.2727H690.97V92.1136H692.561C695.345 82.0379 699.886 74.5473 706.183 69.642C712.481 64.6705 719.805 62.1847 728.158 62.1847C732.201 62.1847 736.046 62.6818 739.692 63.6761C743.338 64.6704 746.619 66.0293 749.536 67.7528L735.217 107.724C733.096 106.664 730.809 105.769 728.357 105.04C725.97 104.311 723.319 103.946 720.402 103.946C715.364 103.946 710.691 105.205 706.382 107.724C702.14 110.243 698.759 113.757 696.24 118.264C693.721 122.705 692.429 127.975 692.362 134.074V217H643.74ZM804.871 219.188C793.602 219.188 783.361 216.271 774.147 210.438C764.933 204.604 757.575 195.854 752.073 184.188C746.571 172.521 743.82 158.037 743.82 140.736C743.82 122.772 746.671 107.99 752.371 96.3892C758.072 84.7888 765.529 76.2045 774.743 70.6364C784.024 65.0682 794 62.2841 804.672 62.2841C812.693 62.2841 819.554 63.6761 825.255 66.4602C830.956 69.178 835.662 72.6913 839.374 77C843.086 81.3087 845.903 85.7831 847.826 90.4233H848.82V64.2727H897.442V217H849.317V192.241H847.826C845.771 196.948 842.854 201.356 839.076 205.466C835.297 209.576 830.558 212.89 824.857 215.409C819.223 217.928 812.561 219.188 804.871 219.188ZM821.775 181.304C827.674 181.304 832.712 179.647 836.888 176.332C841.064 172.952 844.279 168.212 846.533 162.114C848.787 156.015 849.914 148.856 849.914 140.636C849.914 132.284 848.787 125.092 846.533 119.06C844.346 113.027 841.131 108.387 836.888 105.139C832.712 101.891 827.674 100.267 821.775 100.267C815.742 100.267 810.638 101.924 806.462 105.239C802.286 108.553 799.104 113.226 796.917 119.259C794.796 125.291 793.735 132.417 793.735 140.636C793.735 148.856 794.829 156.015 797.016 162.114C799.204 168.212 802.352 172.952 806.462 176.332C810.638 179.647 815.742 181.304 821.775 181.304ZM919.792 217V64.2727H968.414V217H919.792ZM944.152 46.4744C937.325 46.4744 931.458 44.2206 926.553 39.7131C921.648 35.1392 919.195 29.6373 919.195 23.2074C919.195 16.8437 921.648 11.4081 926.553 6.90057C931.458 2.3267 937.325 0.0397606 944.152 0.0397606C951.046 0.0397606 956.913 2.3267 961.752 6.90057C966.657 11.4081 969.11 16.8437 969.11 23.2074C969.11 29.6373 966.657 35.1392 961.752 39.7131C956.913 44.2206 951.046 46.4744 944.152 46.4744ZM1124.3 110.906L1079.66 112.099C1079.19 108.918 1077.93 106.1 1075.88 103.648C1073.82 101.129 1071.14 99.1733 1067.82 97.7812C1064.57 96.3229 1060.8 95.5938 1056.49 95.5938C1050.85 95.5938 1046.05 96.7206 1042.07 98.9744C1038.16 101.228 1036.24 104.277 1036.3 108.122C1036.24 111.105 1037.43 113.69 1039.88 115.878C1042.4 118.065 1046.88 119.822 1053.31 121.148L1082.74 126.716C1097.98 129.633 1109.32 134.472 1116.74 141.233C1124.23 147.994 1128.01 156.943 1128.08 168.08C1128.01 178.553 1124.9 187.668 1118.73 195.423C1112.63 203.179 1104.28 209.211 1093.67 213.52C1083.07 217.762 1070.94 219.884 1057.28 219.884C1035.47 219.884 1018.27 215.409 1005.68 206.46C993.149 197.445 985.99 185.381 984.201 170.267L1032.23 169.074C1033.29 174.642 1036.04 178.884 1040.48 181.801C1044.92 184.718 1050.59 186.176 1057.48 186.176C1063.71 186.176 1068.78 185.016 1072.69 182.696C1076.61 180.376 1078.59 177.294 1078.66 173.449C1078.59 170.002 1077.07 167.251 1074.09 165.196C1071.1 163.075 1066.43 161.418 1060.07 160.224L1033.42 155.153C1018.11 152.369 1006.71 147.232 999.215 139.741C991.724 132.185 988.012 122.573 988.078 110.906C988.012 100.698 990.73 91.9811 996.232 84.7557C1001.73 77.464 1009.56 71.8958 1019.7 68.0511C1029.84 64.2064 1041.8 62.2841 1055.59 62.2841C1076.27 62.2841 1092.58 66.6259 1104.51 75.3097C1116.44 83.9271 1123.04 95.7926 1124.3 110.906ZM1215.01 219.884C1199.03 219.884 1185.25 216.735 1173.65 210.438C1162.11 204.074 1153.23 195.026 1147 183.293C1140.83 171.493 1137.75 157.473 1137.75 141.233C1137.75 125.456 1140.87 111.669 1147.1 99.8693C1153.33 88.0038 1162.11 78.7898 1173.45 72.2273C1184.78 65.5985 1198.14 62.2841 1213.52 62.2841C1224.39 62.2841 1234.33 63.9744 1243.35 67.3551C1252.36 70.7358 1260.15 75.7405 1266.71 82.3693C1273.28 88.9981 1278.38 97.1847 1282.03 106.929C1285.67 116.607 1287.49 127.71 1287.49 140.239V152.369H1154.75V124.131H1242.25C1242.19 118.96 1240.96 114.353 1238.57 110.31C1236.19 106.266 1232.91 103.117 1228.73 100.864C1224.62 98.5436 1219.88 97.3835 1214.51 97.3835C1209.08 97.3835 1204.2 98.6098 1199.9 101.062C1195.59 103.449 1192.17 106.73 1189.65 110.906C1187.13 115.016 1185.81 119.689 1185.68 124.926V153.662C1185.68 159.893 1186.9 165.362 1189.36 170.068C1191.81 174.708 1195.29 178.321 1199.8 180.906C1204.3 183.491 1209.67 184.784 1215.9 184.784C1220.21 184.784 1224.12 184.187 1227.64 182.994C1231.15 181.801 1234.17 180.045 1236.68 177.724C1239.2 175.404 1241.09 172.554 1242.35 169.173L1287 170.466C1285.14 180.475 1281.06 189.192 1274.77 196.616C1268.54 203.974 1260.35 209.708 1250.21 213.818C1240.07 217.862 1228.33 219.884 1215.01 219.884Z" fill="white"/>
</svg>
