<svg width="16" height="16" viewBox="0 0 16 16" fill="none" xmlns="http://www.w3.org/2000/svg">
<path fill-rule="evenodd" clip-rule="evenodd" d="M12.616 3.74473C12.5835 3.6661 12.5352 3.59243 12.4713 3.52851C12.4074 3.4646 12.3337 3.41637 12.2551 3.38384C12.1765 3.35124 12.0903 3.33325 11.9999 3.33325H5.99992C5.63173 3.33325 5.33325 3.63173 5.33325 3.99992C5.33325 4.36811 5.63173 4.66659 5.99992 4.66659H10.3904L3.52851 11.5285C3.26816 11.7889 3.26816 12.211 3.52851 12.4713C3.78886 12.7317 4.21097 12.7317 4.47132 12.4713L11.3333 5.60939V9.99992C11.3333 10.3681 11.6317 10.6666 11.9999 10.6666C12.3681 10.6666 12.6666 10.3681 12.6666 9.99992V3.99992C12.6666 3.90953 12.6486 3.82333 12.616 3.74473Z" fill="#B8B8BF"/>
</svg>
